<svg xmlns="http://www.w3.org/2000/svg" opacity=".3" viewBox="0 0 1422 800"><defs><linearGradient id="oooscillate-grad" x1="50%" x2="50%" y1="0%" y2="100%"><stop offset="0%" stop-color="hsl(206, 75%, 49%)" stop-opacity="1"/><stop offset="100%" stop-color="hsl(331, 90%, 56%)" stop-opacity="1"/></linearGradient></defs><g fill="none" stroke="url(#oooscillate-grad)" stroke-linecap="round" stroke-width="1"><path d="M 0 448 Q 355.5 -100 711 400 Q 1066.5 900 1422 448" opacity=".05"/><path d="M 0 420 Q 355.5 -100 711 400 Q 1066.5 900 1422 420" opacity=".11"/><path d="M 0 392 Q 355.5 -100 711 400 Q 1066.5 900 1422 392" opacity=".18"/><path d="M 0 364 Q 355.5 -100 711 400 Q 1066.5 900 1422 364" opacity=".24"/><path d="M 0 336 Q 355.5 -100 711 400 Q 1066.5 900 1422 336" opacity=".3"/><path d="M 0 308 Q 355.5 -100 711 400 Q 1066.5 900 1422 308" opacity=".37"/><path d="M 0 280 Q 355.5 -100 711 400 Q 1066.5 900 1422 280" opacity=".43"/><path d="M 0 252 Q 355.5 -100 711 400 Q 1066.5 900 1422 252" opacity=".49"/><path d="M 0 224 Q 355.5 -100 711 400 Q 1066.5 900 1422 224" opacity=".56"/><path d="M 0 196 Q 355.5 -100 711 400 Q 1066.5 900 1422 196" opacity=".62"/><path d="M 0 168 Q 355.5 -100 711 400 Q 1066.5 900 1422 168" opacity=".68"/><path d="M 0 140 Q 355.5 -100 711 400 Q 1066.5 900 1422 140" opacity=".75"/><path d="M 0 112 Q 355.5 -100 711 400 Q 1066.5 900 1422 112" opacity=".81"/><path d="M 0 84 Q 355.5 -100 711 400 Q 1066.5 900 1422 84" opacity=".87"/><path d="M 0 56 Q 355.5 -100 711 400 Q 1066.5 900 1422 56" opacity=".94"/></g></svg>